<?xml version="1.0" encoding="UTF-8"?> <svg xmlns="http://www.w3.org/2000/svg" xmlns:xlink="http://www.w3.org/1999/xlink" version="1.1" id="Calque_1" x="0px" y="0px" viewBox="0 0 1000 1000" style="enable-background:new 0 0 1000 1000;" xml:space="preserve"> <style type="text/css"> .st0{fill-rule:evenodd;clip-rule:evenodd;fill:#2473B6;} .st1{fill:#2473B6;} </style> <g> <path class="st0" d="M660.2,247.9c1.5-5.1-25.2-20.3-30.4-23.2c-11.5-6.5-23.3-12.3-35.5-17.6c-5.4-2.3-10.8-4.8-16.2-7.2 c-6.8-3.1-17.2-5.3-22.6-10.4c-4.3-4-4.9-9.7-7.5-14.6c-3.1-5.9-6.6-13.8-12.1-17.9c-7.2-5.2-8.3,2.7-8.5,8.4 c-0.2,7.4-1.2,10.1-8.3,12c-10.7,2.9-24.1-0.6-35.3-2c-15.9-1.8-31.6-2.9-47.6-3.9c-2.8-0.2-6.6,0.4-8.9-1.6 c-1.6-1.4-2.4-3.4-4.3-4.4c-2.2-1.2-4.1,2.5-6.3,3.3c-1.1,0.4-8.5,1.2-8.6,1.5l7.5,2.2c-0.2,0.6-0.3-0.1-0.4,0.5 c-6.4-4.5-17.8-1.8-24.8-3c-2.6-8.1-13.9-16.5-20.2-21.7c-9.5-7.8-20.3-14.1-30.7-20.6c-4.9-3-9.6-6.2-14.5-9.1 c-4.3-2.5-10.4-7.7-15.6-7.6c1.7,3.1,3.3,5.5,5.5,8.2c3.1,3.9,0,7.9,5.6,8c5.3,0.1,5.7,4.3,9.1,8.1c4.2,4.7,8.7,10,12.1,15.3 c5.9,9,15,17.2,18.3,27.7c2.8,9.2-10.6,18.7-13.2,26.9c11.3,3.4,24.9-11.4,34-16.3c6.1-3.2,8.9-7.6,16.4-6.1 c2.8,0.6,5.6,1.4,8.3,2.2c5,1.4-1,0.8-1.1,1.3c4.8,1.6,8.6,3.9,6.5,8.6c3.8,2.8,8.8,1,12.9,0c5.4-1.3,8.3,1,13.2,3.2 c6,2.8,12.7,5.2,19.1,7c2.9,1.7,6.3,2.4,8.8,4.6c2.9,2.6,1.8,6.8,6.2,7c3.2,0.1,6.2-1,9.3-1.2c2.6-0.1,5.3,2.7,7.5,3.7 c6.7,3.1,13.4,6.3,20.3,9.1c15.3,6.2,30.4,9.9,46.2,14c9.2,2.4-7.8,26-7.5,30.9c0.2,5.5,9.8-1,11.5-1.9c5.4-2.9,10.1-7.8,14.2-12.3 c3-3.2,4.9-7.5,8.2-10.5c3.4-3.2,13,0.3,17.1,0.6c7.5,0.6,15.2,0.8,22.6,1.8c2.3,0.3,4.6,0.7,6.9,0.6c4.3-0.2,1.5-1.4,1.9-2.7 c5.1,0.6,10.3-0.4,15.5-0.3C649.7,249,655.4,247.2,660.2,247.9"></path> <path class="st1" d="M653,227.5c4.8-2.6,11.8-0.1,17,2.9c5.2,3,13.8,8.4,20.4,24c6.6,15.6,20.1,38.3,23,41 c18.4,7.7,62.4,32.2,80.7,41.4c18.3,9.2,59.1,37.3,70,46.2c10.9,9,17.1,26.8,16.5,30.5c0,0,14.8,14.6,18.5,20.6 c3.7,6-3,6.3-6.5,6.3c-3.5-0.1-22.4-5.2-30.6-7.3c-8.2-2.1-29.7-3.5-38.4-4.2c-8.7-0.7-31.6-1.4-43.2-2.7c0,0-9,7.7-21.8,11.8 c-12.8,4.1-32.9,3.6-46.5-1.2c-3.1-1.1-8.5-5.8-3.4-7.1c5.2-1.3,15-6,25.8-13.1c0,0-36.3-5.5-57.3-12.5c-21-7-60.5-23.5-86.4-38.4 c-54.9-31.5-101.7-71.5-109.9-78c-13.2-9-32.1-24.3-34.3-31.3c0,0-35.2,6.7-64-5.8c-4.2-1.5-10.7-6.1-6.7-7.5 c4-1.3,14.6,0.5,18.7-2c4-2.5,20.2-16.3,30.3-12.7c0,0,4.1-5.9,3.3-8.2c-0.8-2.2-1.6-6.4,0.7-6.4c2.3,0,17.8,16.1,23,21.1 c4.2,2.6,13.3,4.3,26.2,4.6c12.8,0.2,30.3,3.7,49.7,9.8c19.3,6,43.5,17.4,55.2,21.9c11.7,4.5,20.9,3.9,30.2,4.1 c9.3,0.2,18.2,1.7,24,0.7c5.9-1.1,23-6.3,23.3-22.6c0.3-4.2-2.1-14-4.2-16.7C653.9,233.7,650.7,230.6,653,227.5z"></path> <path class="st0" d="M549,53c-2.1-0.2-1.5,2.3-4.6,2.1c-1.2-0.1-2.5-0.2-3.7-0.5c0.3,1.7-0.1,2.3-1.1,2c-1.2,0.5-2.4,0.5-3.6-0.1 c-0.1,1.6-0.8,2.9-2.1,3.9c-6.9,4.8-21.3-15.7-22.6-16.9c-3.7-3.5-8.3-6.7-13.4-7.5c0,0.1,1.4,1.1,1.4,1.1 c3.2,4.1,5.6,6.4,7.2,11.9c2.7,9-4.1,20-14.9,17.9c0.2,1.3,0.5,0.8,1.7,1.4c-3.7,3-19.9-1.2-20.3,2.7c2.4,0.2,4.8,0.2,7.2,0.4 c-0.1,1.4-7.6,2.3-9,2c-1.6-0.3-2.7-2.9-4.1-1.8c-1.8-0.5-4.2,1.8-6.1,3.3c3.1,0.3,1.9-0.7,4.2,0.8c0.7-1.1,1.8-1.4,3.1-0.9 c-0.4,3.4-7.9,2-9.4,0.7c-2.3-2-6,0.6-8.2,2c2.6,0.2,5.2,0.2,7.9,0.5c-2,0.8-2.8,1.2-3.9,1.7c-2.2,1.1-5.2-1.2-5.8-1.5 c-3-1.3-3.6-0.2-6.4,1.1c-3,1.4-4.8-0.9-8.2,2.5c1.4,0.1,3.7,0.5,5,1.1c-2.2,1.3-6.3-0.5-6.2-0.6c-0.6,0.5-2-2.3-2.5-1.3 c-1.1,0.4-4.1,1.6-5.1,2.2c1.6,0.2,3.1,0.6,4.7,0.8c-0.2,2.1-3.3,1.1-4.4,0.2c-2.7-2.2-4.4-1.7-7.4-0.2c1,0.1,4.5,0.8,4.3,2 c-5-0.5-5.9-4-10.8-1.4c0.7,0.1,3.8,1.2,3.8,1.6c-6.5-0.7-7.7-4.8-12.4-8.6c-6.3-4.9-10.1-11.4-14.8-17.6 c-4.9-6.3-8.8-13.1-14.8-18.7c-1.9-1.8-21.6-12.3-22.2-7c12.6,1.5,16.5,19,21.3,28.3c3.6,6.9,4.8,12.3,8,18.9 c4.5,9.5-7.7,21-13.9,28.4c-4,4.8-7,12.7-13.1,15.3c-2.2,0.9-2.3,2.4-4.3,2.5c-0.3,2-5.7,1-7,2.9c16.1,1.7,25.2-5.4,37.9-14.7 c5.6-4.1,12-11.4,18.6-13.7c5.2-1.7,8.5-6.9,13.9-7.5c0.1,1.3-0.6,1.8-2.3,1.6c2.4,0.5,3,2.3,5,0.7c0.7-0.6,5.1-2,4.9,0.4 c-0.9-0.1-4.2-0.2-4.9,0.6c3.2,0.4,4.2,1.7,7.4,2c-0.4-3.3,5.6-1.3,5.4,0.6c-1.6-0.2-3.2-0.3-4.8-0.2c-0.5,4.8,13.4-0.3,12.9,3.8 c-1.8-0.2-3.3-0.2-5.1-0.5c-0.7,6.1,14.2,0.3,13.7,5.1c-1.6-0.2-4-1-5.5-0.3c2,0.4,2.6,1.6,3.6,3.1c1.7-0.7,4,0.1,5.8-0.3 c0.5-0.8,4.7,1.3,5.2,2.6c-0.3-0.1-0.4-0.1-0.3,0.3c-1.2-0.5-2.5-1-3.8-1.3c-0.7,6.7,13.2,1.2,12.7,6.5c-1.7-0.2-2.9-1.2-4.7-1.1 c0.9,1.1,3.6,5,5.3,4.8c1.7-0.2,9.6-1.9,9.1,2.5c-1.7-0.6-3.4-0.6-5.1-0.2c3.3,0.8,2.7,4.3,6.7,2.7c1.9-0.7,5.4,0.1,6.4,2.4 c-1-0.4-1.9-0.3-2.8,0.3c1.6,0.3,3.2,3.1,4,2.8c0.1,0.3-0.1,0.4-0.4,0.3c5,6.1-1.5,19.8-1.2,20.2c-0.5,0-7.3,9.2-8.1,10.4 c5.5,0.6,10.9-5.5,14.4-8.9c1.9-1.9,2.8-2.4,5-4.6c1.1-1.2,4.3-4.2,5.7-5.7c3.3-4.1,4.7-4.9,11.7-1c5,2.8,16,5.5,21.6,7.2 c16.8,5.4,34.4,6.3,51.8,7.5c4.1,0.3,2,3.2,5.3,5.3c2.5,1.6,1.2,5.5,2,8.8c1.1,4.1-1.7,7.9,3.3,10.2c0.6-1.7,3.2-6.3,5.7-7.9 c2.1-1.5,4.4-11.4,4.7-13.8c0.9-5.9,14.1-3.4,19-3.9c11-1.2,21.2-3.5,31.8-7c18.2-6,35.5-14.5,53.6-20.1c3.1-0.9,8.2-1.1,10.9-2.9 c2.4-1.5,2.1-4.5-0.4-5.1c-3.1-0.7-4-2.8-7.3-3.1c-3.2-0.2-6.5,0.2-9.7,0c-1-4.7,20.5-4.2,13.3-11.3c-3.2-3.1-8.1-4.1-12.8-7.4 c-12-8.6-24.4-11.1-37.5-18.9c-6.3-3.8-14.8-5.5-21.9-8c-4.4-1.5-9-2.4-13.4-3.8c-3.7-1.1-9.9-1.1-12.8-3.5c-0.9-1.9,0-7.3-0.1-9.5 c-0.1-3.1-0.6-5.2-0.5-8c0.5-8.2-1.8-16-3-23.8c-2.2,1.5-2.6,3.6-4.9,4.6c-1.7,0.8-2.7,8.1-4.2,9.6c-1.3,1.3-2.8,3.6-4.3,4.5 c-1.7,1-10.2,3-10.5,3.6c-1.2,2.1-3.7,1.1-5.5,1c-0.9,2.1-3.2,2.4-5.2,2.2c-3.4-0.3-1.6,1-4.4,2.2l-4.2-0.5 c-0.1,1.2-0.8,1.7-2.1,1.5C564.7,53.6,548.9,54.4,549,53"></path> <path class="st1" d="M607.2,191c-1.5-0.9-4-8.5-2.1-12.1c2.2-4.1,20.9-26.5,19-25c-8.8,6.9,5.3,14.8,18.9,26.3 c6,5,10.5,7.4,32.2,6.3c54.1-2.7,48-21.4,54.3-26.7c4.6-3.9-5.4-7.8,6.5-13.3c23.2-10.6,37.1-20.8,68.2-20.7 c19.5,0,37.7,15.2,57.2,17.5c11.8-4.1,23.5-29.8,36.6-37.4c0.7,7.5-2.5,12.7-7,19c3.7-2.3,8.9-2.1,12.8-4c-1.5,5.7,1,7,0.6,12.2 c7.9-6,16.8-9.1,26.8-8.9c-2,3.9-4,7.8-6,11.7c26.8-5.9,38.3-30.4,59.6-45.6c-23.1,40.8-44.2,65.1-83.9,88.7 c-31.5,18.7-68.1-16.7-98.6,1.2c-34,19.9-12.5,77.7,0.8,101.1c12.8,22.4,42.7,31.4,50.1,56.5c5.6,19.3,23.2,31.6,27.9,51.7 c-23.4-24-53.5-48.4-81.6-65.7c-18.5-11.5-36-31.9-52.9-46.2c-14.9-12.7-36.7-17.6-66.3-51.6C657.6,200,673.1,239.9,607.2,191z"></path> <path class="st1" d="M404.8,207.4c0.8,1.6,1.6,6.4-3.3,10.3c-4.9,4-5.4,5.8-8.3,7.9c-2.9,2.2-8.1,7.7-17.5,10.5 c-5.3,2.4-15.5,5.5-20.1,20.1c14.3,1.3,19.2,4.1,27,18.3c3.7,7,8.1,13.7,11.9,19.8c3.7,6.2,9.3,16.8,11.1,21.9c0,0,2.1,4.3,3.6,6.6 c1.4,2.4,4.6,11.9,4.5,12.6c0,0-2.6-1.8-4.2-2.2c-1.6-0.4-3.9-4.4-7.1-8.4c-3.2-3.9-9.9-10.2-14-8.4c-7.9-7.5-33.4-27.7-36-39.8 l-2.7,0.9c-5.1,10.3-20.6,25-41.4,36.8c0,0-7.9,9.3-18.8,11.1c0,0-11.5,8.7-21.9,6.1c0,0-15.8,6.3-21.3,4c0,0-12,5.6-21.4-1 c-7.4,0.9-14.7,0.8-19.2-5.8c0,0-7.2,0.8-10.2-0.6c-8.7,5.6-28.3,14.7-33.2,14.8c0,0-9.7-0.1-7.9-2.6c1.8-2.6,4.3-5.1,3.6-5.9 c-0.6-0.9-3.4-2.6-1.2-3.9c2.2-1.3,8.2-5,9.5-7.3c1.3-2.3,0.6-2.2,0.6-3.8c0-1.6,1.6-2.3,2.8-2.3c1.3,0,12.1,2.6,11.4,0.8 c0,0-12.4-6-13.6-7.5c-1.1-1.5-0.4-4.5,1.9-8.5c2.3-4.1,8.5-14.2,8.5-14.2s-11,11.5-14.6,12.3c-3.7,0.8-7.6,2.6-7.6,2.6 s-3-1-3.3-2.2c-0.4-1.2-1.4-3.6-6.7-3.8c-5.3-0.2-8.5-1-9.4-1c-0.8,0-1.9-0.9-2.2-2.8c-0.3-1.8,0-3.7-3.4-5.9 c-3.4-2.2-7.5-3.4-4.1-7.8c3.3-4.4,0-0.8,0-0.8s1.1-1.4,1-2.5c-0.2-1.2,4.2-4.4,7.1-5.9c3-1.5,14.6-3.1,20.6-3c6,0,23-2.6,26-2.7 c1.8-3.4,7.2-11.3,8.2-12.4c0,0,8.4-11.8,9.2-12.4c0.7-0.6,21-21.2,21-21.2c11.1-9.7,21.5-14.2,21.5-14.2 c1.5-2.8,19.7-8.3,21.4-8.3c1.6,0,3.1-0.7,4.8-1.4c1.7-0.7,6.2-1.3,12.3-1.3c6.2,0,11.3-0.1,13.1-0.5c1.9-0.3,10.6,0.2,13.3,0.3 c2.7,0.1,7.7,2.4,8.9,2.2c1.2-0.2,4.4-4,4.4-4c-4.8-3.1-7-9.8-7.5-13c-0.4-3.3,2.6-24.2,2.3-30.9c-0.3-6.6-3.6-15.4-1.6-19.1 c2.1-3.7,18.4,16.6,19.1,20c0.7,3.4,7.2,30.5,7.9,34c0.8,3.5,7.3,6.3,4,11.3c-3.3,4.9-2.1,10.1-8.2,14.2c3.2,2.3,5.7,7.9,8.1,8.1 c3.1-0.8,7-2.1,9.4-1.4c2.4,0.6,1.7,1.4,5.7-1.7c4.1-3.1,11.3-8.3,15.1-10.7c3.7-2.3,7.9-3.6,11-4.7c3.1-1.2,11.4-3.5,16.4-0.6 c0,0,5.7,1.4,4.4,5.4C405.4,201.5,404.4,206.2,404.8,207.4z"></path> <path class="st1" d="M42.2,608c1.2-12.2,22.8-41.8,62-40.4c16.9,0.6,37.2,10.6,60.3,24.2c0,0-11.3-15.8-55.5-42.4 c0,0,27.3-31.7,50.7-72.3c0,0,21.5,15.2,24.6,30.2c0,0,10.1-24.6-4.2-51c0,0,23.9-37.6,66.7-67c17.7-12.1,17-21.3,20.2-23.4 c1.5-1-19.5,9.6-17,7.7c19.3-14.3,69.6-38.9,90-48.1c3.5-1.6-91.5,28.4-97.2,26.5c-29-10.1-47.3-12-85.9-3.8c0,0-58.9-1-78.7,19.3 c0,0,50.7-7,64.6,8.4c0,0-62.5,82.5-46,173.6C96.7,549.4,41.2,558.7,42.2,608z"></path> <path class="st0" d="M362,323.4l0.9,2.4c-1.1,1.3-1.5,1.6-2.4,2.3c0,1.2,0.3,2.4-0.2,3.4c-0.7,1.1-1.7,1-3,2 c-2.1,1.5-5.7,4-8.2,5.7c-2,1.3-5.6,2-7.3,3.1l-7.4,2.7c-5.4,3.4-12.1,5.1-17.9,8.7c-4.8,3.1-10.8,6.2-16.6,8.3 c-3.1-2.6-8.6-7.1-12.8-7l0.1,0.4c2,1.2,4.2,6.2,3.7,8.9c-0.4,2-2.2,1.8-3.4,3.6c-3.2,5-4,6.5-10.8,6.2c0.8,1.6,1.5,2.4,0,3.8 c-1.1,1.4-3.4,0.9-5.5,1.5l0.2,0.4c0.8,0.7,1,1.5,0.3,2.2c-1.4,2.3-3.3,1.9-6.5,2.8l0.2,0.4c0.6,0.6,0.4,0.7,0.7,2.1 c-2.2,1.1-3.3,1.3-5.5,1.5c0.4,1.6,0.4,1.5-0.5,2.5c-1.3,2.6-3.2,2.5-5.9,3.1l0.6,1.7l-0.9,0.3c-1,1.9-3,1.6-4.9,1.7l0.3,0.8 c-0.1,0.6-0.1,0.5,0,1.4c-2.4,1.2-3.5,1.2-6,1.7l0.6,1.6c-0.7,0.5-1.5,1-2.7,1.5c-0.3,0.2-2.4,0-2.6,0.4c-0.8,1.5-0.9,1.8-3.3,2.6 c-7.6-3.5-14.2-7.8-21.2-12.4c-1.1-0.4-2.2-0.8-3.3-1.2c-2.9-1.9-7-4.3-11-3.5l0.2,0.4c1.1,0.4,4.1,3.2,4.7,3.9 c0.1,0.8,0.2,1.5,0.3,2.2c0.9,0.4,1.9,0.9,2.8,1.3c0.7,0.7,1.2,3.9,2.3,5.2c2.2,2.7,4.8,4.2,6.8,7.3c0.6,1-0.1,3.3,0.7,4.9 c3.5,6.3,2.2,7.8,1.9,14.2c0.4,0.8,0.9,1.6,1.3,2.4c-0.2,0.5-0.6,1.1-0.8,1.7c0.3,0.4,0.6,0.7,0.8,1.1c-0.4,0.6-0.8,1.3-1.2,1.9 c-0.2,2,1.4,1.2,1.3,2.3c-0.1,1.4-1.4,3.2-1.1,6l0.8-0.3c1.2-2.3,3.2-4.2,4.7-6.3c3.1-4.7,3.4-11,5.9-16.1c1.7-3.6,4.4-6.8,6-10.5 c0.8-0.4,1.6-0.9,2.4-1.3c0.4,0.3,0.9,0.6,1.3,0.9c1.1-0.1,3.2-2.1,5.1-2.8c0.2,0.1,0.4,0.2,0.5,0.3l0.4,1.2 c2.2-1.2,2.6-1.6,5.2-2.4c0.8,0.7,1.3,1.3,2.4,1.5c1.1-1.8,2.9-1.6,5-1.8c0.4,0.9,0.5,1.2,1,1.5c1.1-2.3,5.4-2.2,7.1-1.2 c1.2,0.8-0.3,0.8,1.3,0.9c0.8-1.4,2.3-1.6,4-1.8c0.8,0.7,0.9,0.5,1.6,1.7c2.2-0.9,3.6-1.8,5.7-2.1c0.3,0.4,0.6,0.7,0.9,1.1 c0.5,0.3,0.4,0.2,0.8,1.1c3.4-1.8,3.3-2.1,7.1-2.5c1.2,3.5,5.3,3,7.6,5.6c0.2,0.9,0.3,1.8,0.5,2.6c0.5,0.4,1-0.1,1.8-0.2 c1.4-3.2,4-8.9,8.4-10.5c2.7,0.5,6.5-2.6,9.6-3c5.7-0.7,11.7-4.2,17.8-5c6.5-0.9,13.3-5,20.3-5.9c15.2-2,30.2-9.7,43.9-15.3 l0.3,0.8c-1.4,3.5,0.9,10.5,2.2,15c0.7,0,0.8,0.1,1.8-0.2c0.6-1.9,2.3-3.2,3.4-5c1.5-2.2,2.7-6.2,3.4-8.7c0.4-1.3,0.9-7.3,1.3-8 l2.9-1c2.2-2.7,11.3-6,14.6-8.5c12.2-9.5,26.1-17.7,33.2-29.6l-0.3-0.9c-1.4-0.1-5,1.1-6,0.3c2-1.3,2.6-2.8,3.5-4.5l-0.3-0.9 c-4.1-0.7-8.6-2-12.7-2.8c-3.1-0.6-6.1-0.1-9.4-0.3c-17.3-1.2-36.8-0.1-57.5,6.2c-4.4-8.6-15.2-16.2-20.9-23.2 c-0.1,0.5-0.1,0.2-0.1,0.9c-0.6,1.1-0.4,1.5,0.2,3.2c2.8,1.9,5.9,10.4,4.7,14.2l0.1,0.4L362,323.4z"></path> </g> </svg> 